<svg id="Layer_1" data-name="Layer 1" xmlns="http://www.w3.org/2000/svg" viewBox="0 0 577.2 161.26"><defs><style>.cls-1{fill:#477d58;}.cls-2{fill:#262626;}.cls-3{fill:#fff;}.cls-4{fill:#272727;}</style></defs><path class="cls-1" d="M117.76,449.54c-2,.42-4,.76-6,1.26-8.44,2.11-16,5.75-21.67,12.62-4.75,5.77-6.72,12.56-7.67,19.83-1,7.78,1.14,15.12,2.39,22.62a204.5,204.5,0,0,1,2.73,23.24c.22,4.4-.73,9-1.81,13.3a12.28,12.28,0,0,1-8.9,9.33,13.56,13.56,0,0,1-1.53.26c1.24-3.73,2.78-7.35,3.65-11.12,1.9-8.29,2.09-16.75,1.66-25.21-.24-4.88-.52-9.75-1-14.61-.48-5.36-1-10.7-1.74-16a121.61,121.61,0,0,0-2.11-12.92,24.18,24.18,0,0,0-7.62-12.48,13.4,13.4,0,0,0-1.18-.93,3.35,3.35,0,0,0-.81-.25c.36.92.61,1.66.93,2.36,2.3,5.15,4.39,10.37,5,16,.71,6.48-2,9.84-8.27,10a30.55,30.55,0,0,1-5-.38,61.69,61.69,0,0,1-27.33-10.73c-11.33-8.14-18-19.32-20.64-32.89-2.2-11.26-1.52-22.54.42-33.78,0-.17.19-.31.36-.57a135.84,135.84,0,0,1,26.46,7.91c10.5,4.44,20,10.34,27.7,18.92a56.81,56.81,0,0,1,14.43,31.77c.1.8.3,1.59.57,3,.45-1.05.73-1.61.93-2.19,4.08-11.6,10.84-21.12,21.49-27.59a62.42,62.42,0,0,1,21.56-7.77c9.21-1.66,18.49-.87,27.74-1.12,10.26-.28,19.92-2.78,28.43-8.79a42.88,42.88,0,0,0,12.17-13.4c.25-.43.52-.85.79-1.27a3.48,3.48,0,0,1,.59-.11c-.84,7.81-1.5,15.51-2.56,23.17a92.06,92.06,0,0,1-9,29.25c-9.42,18.61-24.57,29.48-44.95,33.46-9.5,1.85-19.06,1.73-28.63,1.38-5.17-.2-10.28-.88-15-3.58-6.94-4-9-9.58-5.78-16.9,3.7-8.29,10.11-14.08,17.7-18.66,3.68-2.21,7.57-4.08,11.36-6.11Z" transform="translate(-9.54 -407.84)"/><path class="cls-2" d="M47.8,569.1c-9.51-.18-17.29-1.38-24.24-5.82-3.7-2.36-6.35-5.64-6.7-10.11a19.42,19.42,0,0,1,3.26-12.11,25.43,25.43,0,0,1,9.74-8.61,46.78,46.78,0,0,1,36.48-4,20.29,20.29,0,0,1,6,3c3.18,2.25,4.12,5.53,3.24,9.3-1,4.14-3.34,7.51-6.06,10.65-.86,1-1.1,1.61-.22,2.83,2.53,3.52,2,6.67-1.31,9.39s-7.4,3.9-11.56,4.56C53.11,568.72,49.73,568.91,47.8,569.1Zm22.91-25.57a6.14,6.14,0,0,0-.95-8.38c-3.36-3.06-7.54-3.85-11.91-4.08C64.09,533.24,70.25,535.43,70.71,543.53Z" transform="translate(-9.54 -407.84)"/><path class="cls-3" d="M70.71,543.53c-.46-8.1-6.62-10.29-12.86-12.46,4.37.23,8.55,1,11.91,4.08A6.14,6.14,0,0,1,70.71,543.53Z" transform="translate(-9.54 -407.84)"/><path class="cls-4" d="M276.93,448.76q-4.44-6-19-6t-20.12,9.74a16.49,16.49,0,0,0-1.88,8.2q0,9,8,16.4a75.28,75.28,0,0,0,14.65,10.16q9.36,5.22,15.76,9.31,24.18,15.39,24.18,33.66,0,16.23-11.92,25t-30.84,8.8q-18.91,0-30.32-7.48t-11.41-17.17q0-9.69,7.78-13.11a12.2,12.2,0,0,1,5.21-1.11,11.76,11.76,0,0,1,8.84,3.59,12.5,12.5,0,0,1,3.46,9.05q0,5.48-5,9.32,6.68,6.66,22.09,6.66t21.14-10.42a16.69,16.69,0,0,0,2.05-8.37q0-8.29-8.54-15.38-4.45-3.67-15-9.53t-16.61-9.78q-22.29-14.34-22.3-33.82,0-15.21,11.49-24.61t28.45-9.39q16.95,0,27.85,7.26t10.89,17.68a13.48,13.48,0,0,1-3.46,9.44,11.32,11.32,0,0,1-8.76,3.8q-8.12,0-11.27-7.09a11,11,0,0,1-.94-4.53A11.88,11.88,0,0,1,276.93,448.76Z" transform="translate(-9.54 -407.84)"/><path class="cls-4" d="M306.94,498.3q0-16.23,5-28.83a58.67,58.67,0,0,1,13.32-20.8q16.48-16.14,42.11-16.14t42.12,15.89q18.27,17.5,18.28,49.46T410.94,547q-16.79,17.13-43.61,17.13t-43.56-17.34Q306.94,529.4,306.94,498.3ZM367.59,553a32.71,32.71,0,0,0,25.12-11.1q12.81-14,12.81-42.63t-10.94-42.11q-10.93-13.5-27.5-13.5t-27.21,13.46q-10.72,13.46-10.72,40.36,0,38.7,21.19,51A33.61,33.61,0,0,0,367.59,553Z" transform="translate(-9.54 -407.84)"/><path class="cls-4" d="M435,553q8.12,0,10.6-1.58a7.47,7.47,0,0,0,3.16-3.37,12.44,12.44,0,0,0,.68-4.36l-.09-90.72q0-5.55-2-6.91-3.33-2.4-12.39-2.4v-9.39h48v9.39q-8.11,0-10.59,1.58a7.43,7.43,0,0,0-3.16,3.38,12.14,12.14,0,0,0-.69,4.35l.09,90.72c0,3.71.65,6,2,6.92C472.86,552.18,477,553,483,553v9.4H435Z" transform="translate(-9.54 -407.84)"/><path class="cls-4" d="M489.62,553q8.11,0,10.59-1.58a7.41,7.41,0,0,0,3.16-3.37,12.2,12.2,0,0,0,.69-4.36L504,452.94q0-5.55-1.88-6.91-3.42-2.4-12.47-2.4v-9.39h48.09v9.39q-8.12,0-10.59,1.58a7.48,7.48,0,0,0-3.16,3.38,12.15,12.15,0,0,0-.68,4.35v99.52h29.47q13.66,0,18.79-15l3.42-9.65,11.79.09-5.9,34.42H489.62Z" transform="translate(-9.54 -407.84)"/></svg>